<svg id="Layer_1" data-name="Layer 1" xmlns="http://www.w3.org/2000/svg" viewBox="0 0 184 23"><defs><style>.cls-1{fill:#0f0f0f;}.cls-2{fill:#e60a14;}.cls-3{fill:#686565;}</style></defs><polygon class="cls-1" points="155.44 22 155.44 1 170.63 1 170.63 5.92 160.37 5.92 160.37 9.04 170.63 9.04 170.63 13.96 160.37 13.96 160.37 17.08 170.63 17.08 170.63 22 155.44 22"/><path class="cls-1" d="M142.29,22h-7.58V1h7.58a13.14,13.14,0,0,1,4.37.72,11,11,0,0,1,3.64,2.09,10,10,0,0,1,2.48,3.32,10.18,10.18,0,0,1,.91,4.34,10.18,10.18,0,0,1-.91,4.34,10.58,10.58,0,0,1-2.45,3.33,10.71,10.71,0,0,1-3.62,2.12,12.94,12.94,0,0,1-4.42.74m-2.65-4.93h2.65a8,8,0,0,0,2.9-.47,5.63,5.63,0,0,0,2-1.27,4.92,4.92,0,0,0,1.17-1.78,5.58,5.58,0,0,0,0-4.1,5,5,0,0,0-1.17-1.79,5.75,5.75,0,0,0-2-1.26,8,8,0,0,0-2.9-.48h-2.65Z"/><path class="cls-2" d="M133,11.55a10.28,10.28,0,0,1-.8,4.06,10.38,10.38,0,0,1-5.52,5.58,10.23,10.23,0,0,1-4.07.81,10.12,10.12,0,0,1-4-.81A10.52,10.52,0,0,1,113,15.62a10.07,10.07,0,0,1-.82-4.07,10.33,10.33,0,0,1,.8-4.07,10.88,10.88,0,0,1,2.2-3.35,10.51,10.51,0,0,1,3.29-2.29A9.93,9.93,0,0,1,122.57,1H133Zm-4.85,0V5.85h-5.54a5.44,5.44,0,0,0-3.9,1.65,5.66,5.66,0,0,0-1.18,1.82,5.55,5.55,0,0,0-.44,2.23,5.83,5.83,0,0,0,.42,2.21,5.16,5.16,0,0,0,1.17,1.77,5.39,5.39,0,0,0,1.76,1.18,5.6,5.6,0,0,0,4.35,0,5.85,5.85,0,0,0,1.76-1.18,5.18,5.18,0,0,0,1.18-1.77,5.83,5.83,0,0,0,.42-2.21"/><path class="cls-1" d="M110.25,15.24A10.7,10.7,0,0,1,108.69,18a10.9,10.9,0,0,1-2.26,2.14,10.09,10.09,0,0,1-2.79,1.38,10.37,10.37,0,0,1-3.15.48,10.17,10.17,0,0,1-4-.81,10.35,10.35,0,0,1-3.29-2.25A10.67,10.67,0,0,1,91,15.61a10.46,10.46,0,0,1-.8-4.06A10.25,10.25,0,0,1,91,7.45,10.94,10.94,0,0,1,93.19,4.1a10.63,10.63,0,0,1,3.29-2.27,9.8,9.8,0,0,1,4-.83,9.64,9.64,0,0,1,3.13.5,10.91,10.91,0,0,1,2.78,1.37A10.27,10.27,0,0,1,108.67,5a10.67,10.67,0,0,1,1.55,2.76h-5.58a5.69,5.69,0,0,0-1.82-1.4,5.44,5.44,0,0,0-6.2,1.14,5.83,5.83,0,0,0-1.18,1.82A5.55,5.55,0,0,0,95,11.55a5.83,5.83,0,0,0,.42,2.21,5.39,5.39,0,0,0,2.93,3,5.3,5.3,0,0,0,2.17.44,5.42,5.42,0,0,0,2.35-.51,5.73,5.73,0,0,0,1.83-1.4Z"/><polygon class="cls-1" points="75.72 1 80.57 9.02 85.33 0.97 91 0.95 83.01 14.44 83.04 22 78.19 22.02 78.16 14.45 70.08 1.02 75.72 1"/><polygon class="cls-1" points="49.85 1 56.7 15.88 63.52 1 68.61 1 68.61 22 63.77 22 63.77 12.09 59.34 22 54.03 22 49.61 12.09 49.61 22 44.76 22 44.76 1 49.85 1"/><path class="cls-1" d="M32.47.9a10.6,10.6,0,1,0,10.6,10.6A10.61,10.61,0,0,0,32.47.9m0,16.13A5.53,5.53,0,1,1,38,11.5,5.52,5.52,0,0,1,32.47,17"/><path class="cls-1" d="M10.49,9.64h9.73l-.12,2.54a11.31,11.31,0,0,1-.86,4,10,10,0,0,1-2,3.09,9.15,9.15,0,0,1-3,2,9.85,9.85,0,0,1-3.8.72,10.41,10.41,0,0,1-4.12-.81A10,10,0,0,1,3,18.94a10.59,10.59,0,0,1-3-7.39A10.92,10.92,0,0,1,.77,7.47,10.59,10.59,0,0,1,2.91,4.1,10,10,0,0,1,6.16,1.83,9.87,9.87,0,0,1,10.25,1a10.45,10.45,0,0,1,2.86.39,9.46,9.46,0,0,1,4.67,3,9.05,9.05,0,0,1,1.5,2.52H13.49A4.25,4.25,0,0,0,11.72,6a7.69,7.69,0,0,0-1.53-.19,4.87,4.87,0,0,0-2.09.44A5.13,5.13,0,0,0,6.4,7.5,5.52,5.52,0,0,0,5.26,9.3a6,6,0,0,0-.41,2.18,6,6,0,0,0,.41,2.22A5.41,5.41,0,0,0,6.4,15.5a5.13,5.13,0,0,0,1.7,1.21,4.87,4.87,0,0,0,2.09.44,6.68,6.68,0,0,0,1-.09,5.21,5.21,0,0,0,1.24-.36,4.93,4.93,0,0,0,1.28-.8,4.05,4.05,0,0,0,1-1.41H10.49Z"/><path class="cls-3" d="M177.52,9.05,174,5.32V9.05h-.81V1H174V4.75L177.52,1h1l-3.78,4,3.82,4Z"/><path class="cls-3" d="M180.59,1.63v3h3.06v.67h-3.06V8.38H184v.67h-4.22V1H184v.67Z"/></svg>